<svg width="46" height="46" viewBox="0 0 46 46" fill="none" xmlns="http://www.w3.org/2000/svg">
<g clip-path="url(#clip0_4_618)">
<path d="M45.816 10.6252C45.5826 10.0632 45.136 9.61659 44.5741 9.38321C44.2976 9.26536 44.0006 9.20285 43.7001 9.19922H32.2006C31.5906 9.19922 31.0056 9.44153 30.5743 9.87285C30.143 10.3042 29.9006 10.8892 29.9006 11.4991C29.9006 12.1091 30.143 12.6941 30.5743 13.1254C31.0056 13.5567 31.5906 13.799 32.2006 13.799H38.1573L25.3008 26.6555L17.7341 19.0658C17.5203 18.8503 17.2659 18.6792 16.9857 18.5624C16.7054 18.4456 16.4048 18.3855 16.1012 18.3855C15.7976 18.3855 15.497 18.4456 15.2167 18.5624C14.9364 18.6792 14.6821 18.8503 14.4683 19.0658L0.668804 32.8653C0.453237 33.0791 0.282137 33.3335 0.165374 33.6137C0.0486104 33.894 -0.0115051 34.1946 -0.0115051 34.4982C-0.0115051 34.8018 0.0486104 35.1024 0.165374 35.3827C0.282137 35.663 0.453237 35.9173 0.668804 36.1311C0.88261 36.3467 1.13698 36.5178 1.41725 36.6346C1.69751 36.7513 1.99812 36.8115 2.30174 36.8115C2.60535 36.8115 2.90596 36.7513 3.18623 36.6346C3.4665 36.5178 3.72087 36.3467 3.93467 36.1311L16.1012 23.9416L23.6679 31.5313C23.8817 31.7469 24.1361 31.918 24.4163 32.0348C24.6966 32.1515 24.9972 32.2116 25.3008 32.2116C25.6044 32.2116 25.9051 32.1515 26.1853 32.0348C26.4656 31.918 26.72 31.7469 26.9338 31.5313L41.4002 17.0419V22.9987C41.4002 23.6086 41.6425 24.1936 42.0738 24.625C42.5051 25.0563 43.0901 25.2986 43.7001 25.2986C44.3101 25.2986 44.8951 25.0563 45.3264 24.625C45.7577 24.1936 46 23.6086 46 22.9987V11.4991C45.9964 11.1986 45.9339 10.9017 45.816 10.6252Z" fill="white"/>
</g>
<defs>
<clipPath id="clip0_4_618">
<rect width="46" height="46" fill="white"/>
</clipPath>
</defs>
</svg>
