<svg width="164" height="48" fill="none" xmlns="http://www.w3.org/2000/svg"><path d="M163.858 21.834v-2.882h-3.579v-4.48l-.12.037-3.361 1.029-.067.02v3.394h-5.305v-1.89c0-.881.197-1.555.585-2.004.385-.444.937-.67 1.639-.67.506 0 1.029.119 1.556.354l.132.059v-3.035l-.062-.023c-.492-.177-1.16-.266-1.988-.266-1.044 0-1.992.228-2.819.678a4.818 4.818 0 00-1.935 1.912c-.454.818-.685 1.762-.685 2.806v2.08h-2.492v2.88h2.492v12.14h3.577v-12.14h5.305v7.716c0 3.177 1.499 4.787 4.455 4.787.485 0 .997-.057 1.518-.168.532-.115.894-.229 1.107-.351l.047-.028v-2.908l-.146.096a2.51 2.51 0 01-.719.314c-.285.08-.522.12-.707.12-.692 0-1.204-.187-1.522-.555-.322-.372-.485-1.021-.485-1.93v-7.092h3.579zm-26.489 9.577c-1.298 0-2.322-.43-3.043-1.278-.726-.853-1.094-2.068-1.094-3.612 0-1.592.368-2.84 1.094-3.706.722-.862 1.736-1.3 3.014-1.3 1.24 0 2.228.418 2.935 1.243.711.828 1.071 2.065 1.071 3.676 0 1.632-.339 2.885-1.008 3.723-.664.832-1.663 1.254-2.969 1.254zm.159-12.82c-2.477 0-4.444.725-5.847 2.157-1.402 1.431-2.113 3.412-2.113 5.889 0 2.352.694 4.243 2.063 5.622 1.368 1.378 3.231 2.077 5.535 2.077 2.401 0 4.329-.736 5.731-2.188 1.402-1.45 2.113-3.412 2.113-5.83 0-2.389-.667-4.295-1.982-5.664-1.316-1.37-3.166-2.064-5.5-2.064zm-13.727 0c-1.685 0-3.079.43-4.143 1.28-1.072.855-1.615 1.976-1.615 3.333 0 .705.117 1.331.348 1.863a3.745 3.745 0 001.069 1.396c.474.39 1.205.8 2.174 1.216.815.336 1.423.62 1.809.843.377.219.645.439.796.653.147.21.221.497.221.852 0 1.01-.756 1.5-2.311 1.5-.577 0-1.234-.12-1.955-.358a7.347 7.347 0 01-2.003-1.015l-.148-.107v3.444l.054.026c.506.233 1.144.43 1.897.585.75.156 1.432.234 2.025.234 1.828 0 3.301-.433 4.375-1.288 1.081-.86 1.629-2.008 1.629-3.411 0-1.013-.295-1.881-.876-2.582-.578-.694-1.58-1.332-2.978-1.895-1.114-.448-1.827-.819-2.121-1.103-.284-.275-.428-.665-.428-1.157 0-.437.178-.787.543-1.07.368-.286.88-.43 1.522-.43.596 0 1.206.094 1.812.278a5.821 5.821 0 011.583.734l.146.1v-3.267l-.056-.024c-.41-.176-.951-.326-1.607-.448a9.816 9.816 0 00-1.762-.183zm-15.083 12.82c-1.298 0-2.322-.43-3.043-1.278-.726-.853-1.094-2.067-1.094-3.612 0-1.592.368-2.84 1.094-3.706.722-.862 1.735-1.3 3.014-1.3 1.24 0 2.227.418 2.935 1.243.711.828 1.071 2.065 1.071 3.676 0 1.632-.339 2.885-1.008 3.723-.664.832-1.663 1.254-2.969 1.254zm.159-12.82c-2.477 0-4.445.725-5.847 2.157-1.402 1.431-2.113 3.412-2.113 5.889 0 2.353.694 4.243 2.063 5.622 1.368 1.378 3.231 2.077 5.535 2.077 2.401 0 4.329-.736 5.732-2.188 1.401-1.45 2.112-3.412 2.112-5.83 0-2.389-.667-4.295-1.982-5.664-1.316-1.37-3.167-2.064-5.5-2.064zm-13.39 2.963v-2.602h-3.533v15.022h3.533V26.29c0-1.307.296-2.38.88-3.191.578-.801 1.347-1.207 2.286-1.207.318 0 .676.052 1.063.156.383.103.66.215.824.333l.148.108v-3.563l-.057-.024c-.329-.14-.795-.21-1.384-.21a3.62 3.62 0 00-2.363.847c-.597.493-1.03 1.17-1.36 2.015h-.037zm-9.861-2.964c-1.621 0-3.067.348-4.297 1.033a6.96 6.96 0 00-2.834 2.914c-.646 1.244-.974 2.697-.974 4.317 0 1.42.318 2.722.947 3.87a6.648 6.648 0 002.644 2.673c1.124.623 2.424.94 3.863.94 1.679 0 3.113-.337 4.262-.999l.047-.026v-3.237l-.149.108a6.61 6.61 0 01-1.729.9c-.624.218-1.194.328-1.693.328-1.386 0-2.5-.434-3.307-1.289-.81-.856-1.22-2.059-1.22-3.572 0-1.523.428-2.756 1.271-3.667.842-.907 1.957-1.367 3.314-1.367 1.162 0 2.294.393 3.364 1.17l.148.107v-3.41l-.047-.028c-.403-.225-.953-.412-1.635-.553a9.765 9.765 0 00-1.975-.212zm-10.538.362h-3.533v15.022h3.533V18.952zm-1.73-6.399a2.13 2.13 0 00-1.506.59c-.419.394-.63.89-.63 1.474 0 .575.209 1.061.623 1.444.412.382.921.576 1.513.576a2.18 2.18 0 001.518-.575c.42-.384.632-.87.632-1.445 0-.564-.206-1.055-.614-1.458-.408-.402-.925-.606-1.537-.606zm-8.817 5.291v16.13h3.606V13.013h-4.99l-6.345 15.569-6.156-15.569h-5.194v20.96h3.389v-16.13h.116l6.5 16.13h2.558l6.4-16.129h.116z" fill="#706D6E"/><path d="M16.622 22.631H0V6.01h16.622v16.62z" fill="#F1511B"/><path d="M34.976 22.631H18.354V6.01h16.622v16.62z" fill="#80CC28"/><path d="M16.622 40.992H0V24.369h16.622v16.623z" fill="#00ADEF"/><path d="M34.976 40.992H18.354V24.369h16.622v16.623z" fill="#FBBC09"/></svg>