<svg width="113" height="48" fill="none" xmlns="http://www.w3.org/2000/svg"><path d="M48.238 25.65c0 5.323-4.165 9.246-9.275 9.246-5.111 0-9.275-3.923-9.275-9.246 0-5.36 4.164-9.246 9.275-9.246 5.11 0 9.275 3.885 9.275 9.246zm-4.06 0c0-3.326-2.414-5.602-5.215-5.602-2.802 0-5.215 2.276-5.215 5.602 0 3.293 2.413 5.603 5.215 5.603 2.8 0 5.215-2.314 5.215-5.603z" fill="#EA4335"/><path d="M68.247 25.65c0 5.323-4.165 9.246-9.275 9.246s-9.275-3.923-9.275-9.246c0-5.356 4.164-9.246 9.275-9.246 5.11 0 9.275 3.885 9.275 9.246zm-4.06 0c0-3.326-2.414-5.602-5.215-5.602-2.802 0-5.215 2.276-5.215 5.602 0 3.293 2.413 5.603 5.215 5.603 2.801 0 5.215-2.314 5.215-5.603z" fill="#FBBC05"/><path d="M87.422 16.963v16.599c0 6.828-4.026 9.617-8.787 9.617-4.481 0-7.178-2.997-8.195-5.448l3.535-1.472c.63 1.505 2.172 3.28 4.656 3.28 3.047 0 4.936-1.88 4.936-5.418v-1.33h-.142c-.909 1.121-2.66 2.1-4.87 2.1-4.622 0-8.857-4.026-8.857-9.207 0-5.22 4.235-9.28 8.858-9.28 2.205 0 3.956.98 4.869 2.068h.142v-1.505h3.855v-.004zm-3.568 8.72c0-3.255-2.172-5.635-4.935-5.635-2.802 0-5.149 2.38-5.149 5.636 0 3.222 2.347 5.569 5.149 5.569 2.763 0 4.935-2.347 4.935-5.57z" fill="#4285F4"/><path d="M93.779 7.233V34.33h-3.96V7.233h3.96z" fill="#34A853"/><path d="M109.211 28.693l3.152 2.101c-1.017 1.505-3.468 4.098-7.704 4.098-5.252 0-9.175-4.06-9.175-9.246 0-5.498 3.956-9.246 8.721-9.246 4.798 0 7.145 3.819 7.912 5.882l.421 1.05-12.36 5.12c.946 1.855 2.418 2.8 4.481 2.8 2.068 0 3.502-1.016 4.552-2.559zm-9.7-3.326l8.262-3.43c-.454-1.155-1.821-1.96-3.43-1.96-2.064 0-4.936 1.822-4.832 5.39z" fill="#EA4335"/><path d="M14.697 23.245v-3.923h13.219a13 13 0 01.196 2.368c0 2.943-.805 6.582-3.397 9.175-2.523 2.626-5.745 4.027-10.013 4.027C6.79 34.892.137 28.447.137 20.535.137 12.623 6.79 6.18 14.702 6.18c4.377 0 7.495 1.717 9.837 3.956l-2.768 2.768c-1.68-1.576-3.956-2.802-7.074-2.802-5.777 0-10.296 4.657-10.296 10.434 0 5.778 4.519 10.434 10.296 10.434 3.748 0 5.882-1.505 7.25-2.872 1.108-1.109 1.838-2.693 2.126-4.856l-9.376.004z" fill="#4285F4"/></svg>