<svg width="127" height="48" fill="none" xmlns="http://www.w3.org/2000/svg"><path d="M27.15 11.884a.32.32 0 00-.303-.278c-.126 0-2.629-.05-2.629-.05s-2.098-2.023-2.3-2.25c-.203-.203-.607-.152-.759-.102 0 0-.404.127-1.061.329a7.538 7.538 0 00-.506-1.239c-.733-1.415-1.845-2.174-3.16-2.174-.101 0-.177 0-.278.025-.05-.05-.076-.1-.127-.126-.581-.607-1.314-.91-2.199-.885-1.694.05-3.387 1.29-4.778 3.464-.96 1.542-1.694 3.463-1.921 4.954-1.947.607-3.312 1.037-3.362 1.037-.986.303-1.011.329-1.138 1.264C2.58 16.56 0 36.507 0 36.507l21.64 3.741 9.378-2.326c-.025 0-3.842-25.861-3.867-26.038zm-8.14-1.997c-.505.152-1.061.329-1.668.53 0-.859-.126-2.072-.506-3.083 1.29.202 1.922 1.668 2.175 2.553zm-2.806.86c-1.137.353-2.376.732-3.615 1.112.354-1.34 1.012-2.655 1.82-3.54.304-.328.734-.682 1.214-.884.506.986.607 2.376.581 3.311zM13.88 6.271c.404 0 .733.076 1.01.278a4.48 4.48 0 00-1.314 1.036c-1.087 1.163-1.921 2.958-2.25 4.703-1.036.328-2.047.632-2.957.91.606-2.756 2.907-6.851 5.51-6.927z" fill="#95BF47"/><path d="M26.847 11.606c-.126 0-2.629-.051-2.629-.051s-2.098-2.022-2.3-2.25a.406.406 0 00-.278-.126v31.069l9.378-2.326s-3.817-25.861-3.842-26.038c-.05-.177-.202-.278-.329-.278z" fill="#5E8E3E"/><path d="M16.432 16.434l-1.087 4.07s-1.213-.556-2.654-.455c-2.123.126-2.123 1.466-2.123 1.795.126 1.82 4.904 2.224 5.182 6.496.202 3.363-1.77 5.663-4.652 5.84-3.438.177-5.334-1.845-5.334-1.845l.733-3.11s1.922 1.441 3.438 1.34a1.341 1.341 0 001.315-1.44c-.152-2.377-4.045-2.225-4.298-6.144-.202-3.286 1.947-6.598 6.7-6.901 1.845-.127 2.78.354 2.78.354z" fill="#fff"/><path d="M43.71 25.106c-1.088-.582-1.644-1.087-1.644-1.77 0-.86.784-1.416 1.997-1.416 1.416 0 2.68.582 2.68.582l.986-3.034s-.91-.707-3.59-.707c-3.742 0-6.345 2.148-6.345 5.157 0 1.719 1.213 3.008 2.831 3.943 1.315.733 1.77 1.264 1.77 2.048 0 .809-.658 1.466-1.871 1.466-1.795 0-3.514-.935-3.514-.935l-1.062 3.033s1.568 1.062 4.222 1.062c3.843 0 6.623-1.896 6.623-5.309-.025-1.845-1.415-3.16-3.084-4.12zm15.319-6.396c-1.896 0-3.388.91-4.525 2.275l-.05-.025 1.642-8.595h-4.272l-4.171 21.892h4.272l1.416-7.483c.556-2.831 2.022-4.575 3.387-4.575.961 0 1.34.657 1.34 1.592 0 .582-.05 1.315-.177 1.896l-1.618 8.57h4.273l1.668-8.848c.177-.935.303-2.047.303-2.806.026-2.427-1.238-3.893-3.488-3.893zm13.196 0c-5.157 0-8.57 4.651-8.57 9.834 0 3.311 2.047 5.99 5.89 5.99 5.056 0 8.469-4.524 8.469-9.833.025-3.059-1.77-5.991-5.79-5.991zm-2.099 12.564c-1.466 0-2.073-1.239-2.073-2.806 0-2.452 1.264-6.447 3.59-6.447 1.517 0 2.022 1.315 2.022 2.579 0 2.63-1.289 6.674-3.539 6.674zm18.86-12.564c-2.882 0-4.525 2.553-4.525 2.553h-.05l.252-2.3H80.87a95.09 95.09 0 01-.86 5.688l-2.983 15.673H81.3l1.188-6.345h.1s.886.556 2.504.556c5.03 0 8.317-5.157 8.317-10.365 0-2.882-1.29-5.46-4.424-5.46zM84.89 31.324c-1.112 0-1.77-.632-1.77-.632l.709-3.994c.505-2.68 1.896-4.45 3.387-4.45 1.315 0 1.72 1.214 1.72 2.352 0 2.78-1.644 6.724-4.046 6.724zm14.637-18.757c-1.365 0-2.453 1.087-2.453 2.477 0 1.264.81 2.15 2.023 2.15h.05c1.34 0 2.478-.91 2.503-2.478 0-1.239-.834-2.149-2.123-2.149zm-5.991 21.665h4.272l2.907-15.168h-4.297l-2.882 15.168zm18.074-15.193h-2.983l.152-.708c.253-1.466 1.112-2.756 2.553-2.756.759 0 1.366.228 1.366.228l.834-3.362s-.733-.38-2.326-.38c-1.517 0-3.034.43-4.196 1.416-1.467 1.239-2.149 3.034-2.478 4.854l-.126.708h-1.997l-.632 3.236h1.997l-2.275 11.982h4.272l2.275-11.982h2.958l.606-3.236zm10.314.025s-2.679 6.75-3.867 10.44h-.051c-.076-1.188-1.062-10.44-1.062-10.44h-4.5l2.579 13.929c.051.303.025.506-.101.708-.506.96-1.34 1.896-2.326 2.578-.809.582-1.719.961-2.427 1.214l1.188 3.64c.86-.177 2.68-.91 4.197-2.326 1.946-1.82 3.767-4.651 5.612-8.494l5.233-11.25h-4.475z" fill="#000"/></svg>