<svg width="24" height="24" fill="none" xmlns="http://www.w3.org/2000/svg"><path d="M12 .333c3.17 0 3.565.012 4.809.07 1.242.058 2.088.253 2.832.543.77.296 1.419.697 2.068 1.345a5.725 5.725 0 011.345 2.067c.288.743.484 1.59.542 2.833.055 1.243.07 1.639.07 4.809s-.011 3.565-.07 4.809c-.058 1.242-.254 2.088-.542 2.832a5.696 5.696 0 01-1.345 2.068 5.734 5.734 0 01-2.068 1.345c-.743.288-1.59.484-2.832.542-1.244.055-1.64.07-4.81.07s-3.565-.011-4.808-.07c-1.243-.058-2.089-.254-2.833-.542a5.705 5.705 0 01-2.067-1.345A5.72 5.72 0 01.946 19.64c-.29-.743-.485-1.59-.543-2.832-.055-1.244-.07-1.64-.07-4.81s.012-3.565.07-4.808c.058-1.244.253-2.089.543-2.833A5.693 5.693 0 012.29 2.291 5.713 5.713 0 014.358.946C5.102.656 5.947.46 7.191.403 8.434.348 8.83.333 12 .333zm0 5.833a5.833 5.833 0 100 11.667 5.833 5.833 0 000-11.667zm7.583-.291a1.458 1.458 0 10-2.916 0 1.458 1.458 0 002.916 0zM12 8.5a3.5 3.5 0 110 7 3.5 3.5 0 010-7z" fill="#3461FF"/></svg>