<svg width="46" height="46" fill="none" xmlns="http://www.w3.org/2000/svg"><g clip-path="url(#clip0_4_618)"><path d="M45.816 10.625a2.3 2.3 0 00-1.242-1.242A2.3 2.3 0 0043.7 9.2H32.2a2.3 2.3 0 100 4.6h5.957L25.301 26.656l-7.567-7.59a2.302 2.302 0 00-3.266 0l-13.8 13.8a2.3 2.3 0 000 3.265 2.3 2.3 0 003.267 0L16.1 23.941l7.567 7.59a2.3 2.3 0 003.266 0L41.4 17.041V23a2.3 2.3 0 004.6 0V11.5a2.298 2.298 0 00-.184-.874z" fill="#fff"/></g><defs><clipPath id="clip0_4_618"><path fill="#fff" d="M0 0h46v46H0z"/></clipPath></defs></svg>