<svg width="46" height="42" fill="none" xmlns="http://www.w3.org/2000/svg"><path fill-rule="evenodd" clip-rule="evenodd" d="M6.9 41.6h32.2c2.59 0 4.43-1.129 5.548-2.681C45.678 37.486 46 35.837 46 34.7V20.9a2.3 2.3 0 00-2.3-2.3h-6.9V7.1A6.9 6.9 0 0029.9.2h-23A6.9 6.9 0 000 7.1v27.6c0 1.134.322 2.786 1.352 4.218C2.47 40.474 4.31 41.6 6.9 41.6zm32.2-18.4a2.3 2.3 0 012.3 2.3v9.2a2.3 2.3 0 11-4.6 0v-9.2a2.3 2.3 0 012.3-2.3zm-23-6.9a2.3 2.3 0 114.6 0 2.3 2.3 0 01-4.6 0zm2.3-6.9a6.9 6.9 0 100 13.8 6.9 6.9 0 000-13.8zm-6.9 18.4a2.3 2.3 0 100 4.6h13.8a2.3 2.3 0 000-4.6H11.5z" fill="#fff"/></svg>