<svg width="24" height="20" fill="none" xmlns="http://www.w3.org/2000/svg"><path d="M7.539 19.501c9.057 0 14.011-7.505 14.011-14.001 0-.21 0-.423-.009-.633A10.027 10.027 0 0024 2.314a9.987 9.987 0 01-2.834.777A4.951 4.951 0 0023.337.366a9.8 9.8 0 01-3.13 1.189 4.929 4.929 0 00-8.395 4.491A13.987 13.987 0 011.662.903a4.933 4.933 0 001.527 6.573A4.984 4.984 0 01.96 6.864v.067a4.932 4.932 0 003.948 4.827 4.8 4.8 0 01-1.298.173 4.84 4.84 0 01-.92-.086 4.925 4.925 0 004.6 3.415 9.882 9.882 0 01-6.12 2.111A9.472 9.472 0 010 17.304 14.015 14.015 0 007.539 19.5z" fill="#3461FF"/></svg>