<svg width="72" height="25" fill="none" xmlns="http://www.w3.org/2000/svg"><path d="M4.143 17.855a6.158 6.158 0 001.264 2.071 5.44 5.44 0 001.914 1.317 6.247 6.247 0 002.405.457 5.95 5.95 0 002.37-.475 5.83 5.83 0 001.931-1.334 6.049 6.049 0 001.282-2.054c.304-.796.457-1.685.457-2.668V0h3.686v24.579h-3.651v-2.283a8.465 8.465 0 01-2.897 2.002c-1.112.468-2.312.702-3.6.702-1.31 0-2.533-.228-3.668-.685a8.592 8.592 0 01-2.95-1.948c-.83-.843-1.486-1.855-1.966-3.038C.24 18.147 0 16.831 0 15.38V0h3.687v15.169c0 .983.152 1.878.456 2.686zM25.807 0v8.954a9.392 9.392 0 012.844-1.95c1.077-.479 2.248-.719 3.512-.719 1.31 0 2.54.246 3.686.737a9.42 9.42 0 012.985 2.002 9.42 9.42 0 012.001 2.984 9.172 9.172 0 01.738 3.652 9.047 9.047 0 01-.738 3.634 9.47 9.47 0 01-2.001 2.967 9.42 9.42 0 01-2.985 2.002 9.259 9.259 0 01-3.686.737c-1.264 0-2.44-.24-3.53-.72a9.327 9.327 0 01-2.86-1.949v2.248H22.26V0h3.546zm.404 18.083a6.11 6.11 0 001.317 1.966 6.354 6.354 0 001.966 1.335c.75.327 1.557.491 2.423.491.843 0 1.639-.164 2.387-.491a6.14 6.14 0 001.95-1.335 6.511 6.511 0 001.316-1.966c.328-.75.492-1.557.492-2.423 0-.866-.164-1.68-.492-2.44a6.453 6.453 0 00-1.317-1.984c-.55-.562-1.2-1-1.949-1.317a6.08 6.08 0 00-2.387-.474 6.08 6.08 0 00-2.388.474 6.11 6.11 0 00-1.966 1.317 6.297 6.297 0 00-1.334 1.984 6.102 6.102 0 00-.492 2.44c0 .866.158 1.674.474 2.423zm17.363-6.04a9.552 9.552 0 011.93-2.966 8.973 8.973 0 012.915-2.02c1.124-.49 2.341-.737 3.652-.737 1.287 0 2.481.234 3.581.703a8.495 8.495 0 012.844 1.948 8.91 8.91 0 011.861 2.95c.445 1.135.668 2.37.668 3.704v1.159H46.453a6.088 6.088 0 002.019 3.634 6.019 6.019 0 001.79 1.07 5.848 5.848 0 002.125.387c2.13 0 3.85-.878 5.161-2.633l2.564 1.896a9.536 9.536 0 01-3.3 2.809c-1.312.678-2.786 1.018-4.425 1.018-1.334 0-2.58-.234-3.74-.702a9.106 9.106 0 01-3.02-1.967 9.327 9.327 0 01-2.018-2.967c-.492-1.135-.737-2.37-.737-3.704 0-1.264.234-2.458.702-3.582zm4.933-1.386c-.995.83-1.656 1.937-1.984 3.318h10.92c-.304-1.381-.954-2.487-1.949-3.319-.995-.83-2.159-1.246-3.493-1.246-1.335 0-2.5.416-3.494 1.246zm19.153.403c-.748.82-1.123 1.931-1.123 3.336V24.58h-3.546V6.67h3.51v2.212a4.991 4.991 0 011.739-1.72c.714-.421 1.563-.632 2.546-.632h1.229v3.3H70.54c-1.17 0-2.13.41-2.88 1.23z" fill="#C8C8C8"/></svg>